<svg width="32" height="31" viewBox="0 0 32 31" fill="none" xmlns="http://www.w3.org/2000/svg">
<path d="M15.9729 30.8531C7.44308 30.8531 0.527344 23.9459 0.527344 15.4265C0.527344 6.90724 7.44308 0 15.9729 0C24.5026 0 31.4184 6.90724 31.4184 15.4265C31.4184 23.9459 24.5026 30.8531 15.9729 30.8531Z" fill="#1656A0"/>
<path d="M24.9061 13.1765C24.6763 11.7659 24.0654 10.778 23.0931 10.235C21.9106 9.57731 20.5907 9.44857 19.313 9.32543L19.0608 9.30024C16.5052 9.03436 14.0029 9.10153 11.4081 9.49895C10.9205 9.57451 10.2844 9.68646 9.67914 9.90476C8.95338 10.1678 8.40976 10.5233 8.02026 10.9963C7.37296 11.7799 7.23565 12.7902 7.15719 13.6746C7.07593 14.5898 6.99467 15.6813 7.0283 16.8092C7.0395 17.2318 7.05631 17.7216 7.09554 18.2058C7.17681 19.1517 7.35335 20.3664 8.01185 21.3739C8.89173 22.7201 10.3517 23.0364 11.3744 23.1595C12.8932 23.3386 14.3812 23.5009 15.8999 23.5065H15.998C17.3459 23.5065 18.789 23.389 20.5263 23.1343C21.6948 22.9636 22.8941 22.7033 23.7376 21.9561C24.6763 21.1248 24.85 19.899 24.9509 18.7151C25.0938 17.0359 25.2171 15.0852 24.9061 13.1765ZM21.7144 13.3136L16.8499 17.1423C16.6117 17.3326 16.3343 17.4277 16.0597 17.4277C15.785 17.4277 15.5076 17.3326 15.2694 17.1423L10.4049 13.3136C10.2003 13.1513 10.1639 12.8518 10.3264 12.6447C10.489 12.4404 10.7888 12.404 10.9962 12.5663L15.8579 16.395C15.9896 16.5013 16.1297 16.5013 16.2614 16.395L21.1232 12.5663C21.3305 12.404 21.6304 12.4404 21.7929 12.6447C21.9554 12.8518 21.919 13.1513 21.7144 13.3136Z" fill="white"/>
</svg>
