<svg width="31" height="31" viewBox="0 0 31 31" fill="none" xmlns="http://www.w3.org/2000/svg">
<path d="M15.5002 30.8531C6.97043 30.8531 0.0546875 23.9459 0.0546875 15.4265C0.0546875 6.90724 6.97043 0 15.5002 0C24.03 0 30.9457 6.90724 30.9457 15.4265C30.9457 23.9459 24.03 30.8531 15.5002 30.8531Z" fill="#1656A0"/>
<path d="M13.1463 25.3116H16.9068V15.9079H19.5296L19.8099 12.7593H16.9068C16.9068 12.7593 16.9068 11.5838 16.9068 10.9653C16.9068 10.2237 17.0553 9.92979 17.7755 9.92979C18.3527 9.92979 19.8099 9.92979 19.8099 9.92979V6.66089C19.8099 6.66089 17.6634 6.66089 17.2067 6.66089C14.4101 6.66089 13.1463 7.89233 13.1463 10.2461C13.1463 12.2975 13.1463 12.7565 13.1463 12.7565H11.1904V15.9442H13.1463V25.3116Z" fill="white"/>
</svg>
