<svg width="32" height="31" viewBox="0 0 32 31" fill="none" xmlns="http://www.w3.org/2000/svg">
<path d="M16.0276 30.8531C7.49777 30.8531 0.582031 23.9459 0.582031 15.4265C0.582031 6.90724 7.49777 0 16.0276 0C24.5573 0 31.4731 6.90724 31.4731 15.4265C31.4731 23.9459 24.5573 30.8531 16.0276 30.8531Z" fill="#1656A0"/>
<path d="M12.2227 11.9871H9.02539V22.3003H12.2227V11.9871Z" fill="white"/>
<path d="M10.6083 10.638C11.6535 10.638 12.4997 9.78444 12.4997 8.73492C12.4997 7.6854 11.6535 6.83179 10.6083 6.83179C9.56305 6.83179 8.7168 7.6826 8.7168 8.73492C8.7168 9.78724 9.56305 10.638 10.6083 10.638Z" fill="white"/>
<path d="M17.3311 16.8875C17.3311 15.4378 17.998 14.5729 19.2786 14.5729C20.4527 14.5729 21.0187 15.4014 21.0187 16.8875C21.0187 18.3736 21.0187 22.303 21.0187 22.303H24.1992C24.1992 22.303 24.1992 18.5359 24.1992 15.7736C24.1992 13.0113 22.63 11.6763 20.4415 11.6763C18.2502 11.6763 17.3283 13.3807 17.3283 13.3807V11.9925H14.2627V22.3058H17.3283C17.3311 22.303 17.3311 18.4772 17.3311 16.8875Z" fill="white"/>
</svg>
