<svg width="31" height="31" viewBox="0 0 31 31" fill="none" xmlns="http://www.w3.org/2000/svg">
<path d="M15.5549 30.8531C7.0251 30.8531 0.109375 23.9459 0.109375 15.4265C0.109375 6.90724 7.0251 0 15.5549 0C24.0846 0 31.0004 6.90724 31.0004 15.4265C31.0004 23.9459 24.0846 30.8531 15.5549 30.8531Z" fill="#1656A0"/>
<path d="M19.6822 17.5534C18.6902 17.5534 17.8131 18.0544 17.2863 18.8157L13.778 16.6467C13.8845 16.3892 13.9546 16.1149 13.9826 15.8322C14.033 15.3453 13.9602 14.8639 13.7752 14.4217L17.7459 12.1995C17.8748 12.3618 18.0233 12.5129 18.1886 12.6473C18.7126 13.0699 19.3515 13.2966 20.0156 13.2966C20.1165 13.2966 20.2202 13.291 20.3239 13.2798C21.0973 13.1986 21.7922 12.8236 22.2798 12.2219C22.7702 11.6202 22.9943 10.8617 22.9131 10.0921C22.8318 9.31961 22.4563 8.62552 21.8539 8.13855C21.2514 7.64877 20.492 7.42487 19.7214 7.50603C18.948 7.5872 18.2531 7.96223 17.7655 8.56395C17.2751 9.16568 17.0509 9.92413 17.1322 10.6938C17.1546 10.9093 17.2023 11.1192 17.2695 11.3207L13.2372 13.5765C12.7552 13.0503 12.1079 12.7173 11.3906 12.6445C9.79056 12.485 8.36425 13.6464 8.20173 15.2389C8.12327 16.0113 8.35025 16.767 8.84063 17.3687C9.33101 17.9705 10.0259 18.3455 10.7993 18.4238C10.9002 18.435 11.0011 18.4378 11.0992 18.4378C11.7661 18.4378 12.4078 18.2111 12.9318 17.7857C13.0439 17.6934 13.1475 17.5926 13.2428 17.4863L16.8744 19.7309C16.8156 19.9631 16.7792 20.2066 16.7792 20.4557C16.7792 22.0566 18.0821 23.3608 19.6878 23.3608C21.2934 23.3608 22.5964 22.0594 22.5964 20.4557C22.5964 18.8521 21.285 17.5534 19.6822 17.5534Z" fill="white"/>
</svg>
